<svg width="100" height="100" viewBox="0 0 100 100" fill="none" xmlns="http://www.w3.org/2000/svg">
<rect width="100" height="100" rx="50" fill="black"/>
<g clip-path="url(#clip0_2001_828)">
<path d="M60.9493 10.1441C59.9262 10.4224 59.0554 11.0956 58.5284 12.0156C58.0013 12.9357 57.8612 14.0274 58.1387 15.0508L59.392 19.6374C60.7253 24.5228 59.376 29.7441 55.8507 33.3761C51.9573 37.3921 45.984 38.5868 40.8373 36.3841L39.3067 35.7281C37.7796 35.0758 36.4008 34.1202 35.2539 32.9192C34.1071 31.7183 33.216 30.297 32.6347 28.7414C31.7715 26.4503 31.3306 24.0217 31.3333 21.5734V20.6668C31.3333 19.6059 30.9119 18.5885 30.1618 17.8383C29.4116 17.0882 28.3942 16.6668 27.3333 16.6668C26.2725 16.6668 25.2551 17.0882 24.5049 17.8383C23.7548 18.5885 23.3334 19.6059 23.3334 20.6668V21.5734C23.3334 24.9814 23.9467 28.3628 25.1467 31.5521C26.9142 36.2781 30.3811 40.1747 34.8693 42.4801L35.2587 42.7254C36.7989 43.7142 38.039 45.1057 38.8447 46.7491C39.6504 48.3924 39.9909 50.225 39.8293 52.0481L39.1413 59.6428C39.0347 60.1192 38.96 60.6028 38.9173 61.0934L36.6827 85.6374C36.5865 86.694 36.914 87.7456 37.5931 88.5608C38.2723 89.3759 39.2474 89.8879 40.304 89.9841C41.3606 90.0803 42.4122 89.7528 43.2273 89.0736C44.0425 88.3945 44.5545 87.4194 44.6507 86.3628L46.88 61.8134C46.9116 61.5016 46.9889 61.1961 47.1093 60.9068C47.3037 60.5268 47.572 60.1895 47.8987 59.9148C48.2043 59.6146 48.567 59.3788 48.9654 59.2214L49.0507 59.1948C49.6438 59.0208 50.2762 59.0351 50.8608 59.2357C51.4454 59.4363 51.9534 59.8133 52.3147 60.3148L57.4987 67.4454C58.6188 68.9837 59.1539 70.8708 59.008 72.7681L58.0107 85.6961C57.9301 86.7541 58.273 87.8009 58.9642 88.606C59.6553 89.4112 60.638 89.9088 61.696 89.9894C62.7541 90.07 63.8008 89.7271 64.6059 89.0359C65.4111 88.3448 65.9087 87.3621 65.9893 86.3041L66.9813 73.3814C67.2734 69.5893 66.2051 65.8172 63.968 62.7414L58.784 55.6108C58.1067 54.6828 57.5627 53.6374 57.4507 52.4908L57.0133 48.1068C56.6933 44.9121 58.416 41.9308 60.7733 39.7494C63.7575 36.9786 65.9258 33.4434 67.0427 29.5274C68.1597 25.6114 68.1827 21.4643 67.1093 17.5361L65.8613 12.9494C65.582 11.9261 64.9075 11.0556 63.9863 10.5295C63.0652 10.0034 61.9727 9.86477 60.9493 10.1441ZM46 32.0001C43.8783 32.0001 41.8434 31.1572 40.3432 29.6569C38.8429 28.1567 38 26.1218 38 24.0001C38 21.8784 38.8429 19.8435 40.3432 18.3432C41.8434 16.8429 43.8783 16.0001 46 16.0001C48.1217 16.0001 50.1566 16.8429 51.6569 18.3432C53.1572 19.8435 54 21.8784 54 24.0001C54 26.1218 53.1572 28.1567 51.6569 29.6569C50.1566 31.1572 48.1217 32.0001 46 32.0001ZM77.3973 35.5681C77.4911 35.1241 77.7346 34.7258 78.0871 34.4399C78.4395 34.1541 78.8795 33.9981 79.3333 33.9981C79.7871 33.9981 80.2272 34.1541 80.5796 34.4399C80.9321 34.7258 81.1756 35.1241 81.2693 35.5681L81.824 38.1494C82.0331 39.139 82.5248 40.0467 83.2395 40.7624C83.9543 41.4781 84.8613 41.971 85.8507 42.1814L88.4373 42.7308C88.8814 42.8245 89.2797 43.068 89.5655 43.4205C89.8513 43.7729 90.0073 44.213 90.0073 44.6668C90.0073 45.1206 89.8513 45.5606 89.5655 45.913C89.2797 46.2655 88.8814 46.509 88.4373 46.6028L85.8507 47.1574C84.8613 47.3678 83.9543 47.8607 83.2395 48.5764C82.5248 49.2921 82.0331 50.1998 81.824 51.1894L81.2693 53.7708C81.1756 54.2148 80.9321 54.6131 80.5796 54.8989C80.2272 55.1847 79.7871 55.3407 79.3333 55.3407C78.8795 55.3407 78.4395 55.1847 78.0871 54.8989C77.7346 54.6131 77.4911 54.2148 77.3973 53.7708L76.8427 51.1894C76.6336 50.1998 76.1419 49.2921 75.4271 48.5764C74.7124 47.8607 73.8054 47.3678 72.816 47.1574L70.2293 46.6028C69.7853 46.509 69.387 46.2655 69.1012 45.913C68.8154 45.5606 68.6594 45.1206 68.6594 44.6668C68.6594 44.213 68.8154 43.7729 69.1012 43.4205C69.387 43.068 69.7853 42.8245 70.2293 42.7308L72.816 42.1814C73.8054 41.971 74.7124 41.4781 75.4271 40.7624C76.1419 40.0467 76.6336 39.139 76.8427 38.1494L77.3973 35.5681ZM20.6667 47.3334C19.7333 47.3334 18.928 47.9841 18.7307 48.9014L18.176 51.4828C17.9669 52.4724 17.4752 53.3801 16.7605 54.0958C16.0457 54.8114 15.1387 55.3044 14.1493 55.5148L11.5627 56.0641C11.1187 56.1578 10.7204 56.4013 10.4345 56.7538C10.1487 57.1063 9.9927 57.5463 9.9927 58.0001C9.9927 58.4539 10.1487 58.8939 10.4345 59.2464C10.7204 59.5988 11.1187 59.8424 11.5627 59.9361L14.1493 60.4908C15.1387 60.7011 16.0457 61.1941 16.7605 61.9097C17.4752 62.6254 17.9669 63.5331 18.176 64.5228L18.7307 67.1041C18.8244 67.5481 19.0679 67.9464 19.4204 68.2322C19.7729 68.5181 20.2129 68.6741 20.6667 68.6741C21.1205 68.6741 21.5605 68.5181 21.913 68.2322C22.2654 67.9464 22.5089 67.5481 22.6027 67.1041L23.1573 64.5228C23.3664 63.5331 23.8581 62.6254 24.5729 61.9097C25.2876 61.1941 26.1947 60.7011 27.184 60.4908L29.7707 59.9361C30.2147 59.8424 30.613 59.5988 30.8988 59.2464C31.1847 58.8939 31.3407 58.4539 31.3407 58.0001C31.3407 57.5463 31.1847 57.1063 30.8988 56.7538C30.613 56.4013 30.2147 56.1578 29.7707 56.0641L27.184 55.5148C26.1947 55.3044 25.2876 54.8114 24.5729 54.0958C23.8581 53.3801 23.3664 52.4724 23.1573 51.4828L22.6027 48.9014C22.5095 48.4573 22.266 48.0589 21.9134 47.7733C21.5608 47.4877 21.1205 47.3323 20.6667 47.3334Z" fill="white"/>
</g>
<defs>
<clipPath id="clip0_2001_828">
<rect width="80" height="80" fill="white" transform="matrix(-1 0 0 1 90 10)"/>
</clipPath>
</defs>
</svg>
