<svg width="100" height="100" viewBox="0 0 100 100" fill="none" xmlns="http://www.w3.org/2000/svg">
<rect width="100" height="100" rx="50" fill="black"/>
<g clip-path="url(#clip0_2001_829)">
<path fill-rule="evenodd" clip-rule="evenodd" d="M17.5004 21C17.0415 21.0003 16.5916 21.1269 16.1998 21.3659C15.8081 21.6049 15.4897 21.9471 15.2796 22.355C15.0694 22.763 14.9756 23.2209 15.0083 23.6786C15.0411 24.1363 15.1993 24.5762 15.4654 24.95L40.0004 59.3V88.5C40.0006 88.9522 40.1235 89.3959 40.356 89.7838C40.5884 90.1717 40.9217 90.4893 41.3204 90.7027C41.7191 90.9161 42.1682 91.0175 42.6199 90.9958C43.0716 90.9742 43.5089 90.8305 43.8854 90.58L58.8854 80.58C59.2282 80.3519 59.5093 80.0427 59.7038 79.6798C59.8983 79.317 60.0002 78.9117 60.0004 78.5V59.3L84.5354 24.95C84.8016 24.5762 84.9597 24.1363 84.9925 23.6786C85.0253 23.2209 84.9314 22.763 84.7213 22.355C84.5111 21.9471 84.1927 21.6049 83.801 21.3659C83.4093 21.1269 82.9593 21.0003 82.5004 21H17.5004Z" fill="white"/>
</g>
<defs>
<clipPath id="clip0_2001_829">
<rect width="70" height="70" fill="white" transform="translate(15 21)"/>
</clipPath>
</defs>
</svg>
