<svg width="100" height="100" viewBox="0 0 100 100" fill="none" xmlns="http://www.w3.org/2000/svg">
<rect width="100" height="100" rx="50" fill="black"/>
<path d="M33.3335 83.3334V52.8334C30.5002 52.0556 28.1257 50.5001 26.2102 48.1667C24.2946 45.8334 23.3357 43.1112 23.3335 40.0001V16.6667H30.0002V40.0001H33.3335V16.6667H40.0002V40.0001H43.3335V16.6667H50.0002V40.0001C50.0002 43.1112 49.0424 45.8334 47.1268 48.1667C45.2113 50.5001 42.8357 52.0556 40.0002 52.8334V83.3334H33.3335ZM66.6668 83.3334V56.6667H56.6668V33.3334C56.6668 28.7223 58.2924 24.7923 61.5435 21.5434C64.7946 18.2945 68.7246 16.669 73.3335 16.6667V83.3334H66.6668Z" fill="white"/>
</svg>
