<svg width="30" height="30" viewBox="0 0 30 30" fill="none" xmlns="http://www.w3.org/2000/svg">
<path d="M15 27.5C21.9036 27.5 27.5 21.9036 27.5 15C27.5 8.09644 21.9036 2.5 15 2.5C8.09644 2.5 2.5 8.09644 2.5 15C2.5 21.9036 8.09644 27.5 15 27.5Z" stroke="white" stroke-width="1.5" stroke-linecap="round" stroke-linejoin="round"/>
<path d="M15 15H21.25C21.2497 16.446 20.7481 17.8471 19.8306 18.9647C18.9131 20.0822 17.6365 20.8471 16.2183 21.129C14.8 21.4108 13.328 21.1922 12.0529 20.5104C10.7778 19.8285 9.7785 18.7257 9.22537 17.3897C8.67224 16.0537 8.59945 14.5673 9.0194 13.1837C9.43935 11.8 10.3261 10.6048 11.5284 9.80166C12.7308 8.9985 14.1745 8.6371 15.6135 8.77903C17.0524 8.92096 18.3977 9.55743 19.42 10.58" stroke="white" stroke-width="1.5" stroke-linecap="round" stroke-linejoin="round"/>
</svg>
