<svg width="30" height="30" viewBox="0 0 30 30" fill="none" xmlns="http://www.w3.org/2000/svg">
<path d="M20.579 11.0573L19.2165 19.7811C19.1977 19.9013 19.1493 20.015 19.0757 20.112C19.0021 20.209 18.9056 20.2861 18.7948 20.3366C18.684 20.387 18.5624 20.4091 18.441 20.401C18.3195 20.3928 18.202 20.3546 18.099 20.2898L13.5365 17.4311C13.4416 17.3717 13.3616 17.2915 13.3025 17.1966C13.2433 17.1017 13.2066 16.9945 13.1952 16.8832C13.1837 16.7719 13.1978 16.6595 13.2364 16.5545C13.2749 16.4495 13.337 16.3547 13.4177 16.2773L17.2052 12.6473C17.2477 12.6073 17.1977 12.5411 17.1477 12.5711L11.6577 15.8561C11.3314 16.0523 10.9439 16.1204 10.5702 16.0473L8.58272 15.6636C7.86522 15.5248 7.76647 14.5398 8.44022 14.2611L19.0677 9.8673C19.2488 9.79198 19.4466 9.7663 19.6409 9.79292C19.8352 9.81954 20.0188 9.8975 20.1729 10.0187C20.3271 10.14 20.446 10.3002 20.5176 10.4827C20.5892 10.6653 20.6108 10.8636 20.5802 11.0573" fill="white"/>
<path fill-rule="evenodd" clip-rule="evenodd" d="M14.9998 2.13232C7.89357 2.13232 2.13232 7.89357 2.13232 14.9998C2.13232 22.1061 7.89357 27.8673 14.9998 27.8673C22.1061 27.8673 27.8673 22.1061 27.8673 14.9998C27.8673 7.89357 22.1061 2.13232 14.9998 2.13232ZM4.33732 14.9998C4.33732 13.5996 4.61312 12.2131 5.14896 10.9195C5.6848 9.62583 6.47019 8.4504 7.4603 7.4603C8.4504 6.47019 9.62583 5.6848 10.9195 5.14896C12.2131 4.61312 13.5996 4.33732 14.9998 4.33732C16.4 4.33732 17.7866 4.61312 19.0802 5.14896C20.3738 5.6848 21.5492 6.47019 22.5394 7.4603C23.5295 8.4504 24.3148 9.62583 24.8507 10.9195C25.3865 12.2131 25.6623 13.5996 25.6623 14.9998C25.6623 17.8277 24.539 20.5397 22.5394 22.5394C20.5397 24.539 17.8277 25.6623 14.9998 25.6623C12.172 25.6623 9.4599 24.539 7.4603 22.5394C5.46069 20.5397 4.33732 17.8277 4.33732 14.9998Z" fill="white"/>
</svg>
