<svg width="30" height="30" viewBox="0 0 30 30" fill="none" xmlns="http://www.w3.org/2000/svg">
<g clip-path="url(#clip0_287_584)">
<path d="M19.5001 15.0001C19.5001 16.1936 19.026 17.3382 18.1821 18.1821C17.3382 19.026 16.1936 19.5001 15.0001 19.5001C13.8066 19.5001 12.662 19.026 11.8181 18.1821C10.9742 17.3382 10.5001 16.1936 10.5001 15.0001C10.5011 14.7431 10.5256 14.4931 10.5736 14.2501H9.0001V20.2456C9.0001 20.6626 9.3376 21.0001 9.7546 21.0001H20.2471C20.4469 20.9997 20.6385 20.92 20.7796 20.7786C20.9208 20.6371 21.0001 20.4454 21.0001 20.2456V14.2501H19.4266C19.4746 14.4931 19.4991 14.7431 19.5001 15.0001ZM15.0001 18.0001C15.3942 18 15.7843 17.9223 16.1484 17.7714C16.5124 17.6205 16.8432 17.3994 17.1217 17.1207C17.4003 16.842 17.6213 16.5111 17.772 16.147C17.9227 15.7829 18.0002 15.3927 18.0001 14.9986C18 14.6045 17.9223 14.2143 17.7714 13.8503C17.6205 13.4863 17.3994 13.1555 17.1207 12.877C16.842 12.5984 16.5111 12.3774 16.147 12.2267C15.7829 12.076 15.3927 11.9985 14.9986 11.9986C14.2027 11.9988 13.4396 12.3151 12.877 12.878C12.3144 13.4409 11.9984 14.2043 11.9986 15.0001C11.9988 15.7959 12.3151 16.5591 12.878 17.1217C13.4409 17.6843 14.2043 18.0003 15.0001 18.0001ZM18.6001 11.8501H20.3986C20.4578 11.8503 20.5165 11.8388 20.5713 11.8163C20.626 11.7937 20.6758 11.7606 20.7178 11.7188C20.7597 11.677 20.793 11.6273 20.8157 11.5727C20.8384 11.518 20.8501 11.4593 20.8501 11.4001V9.6016C20.8503 9.54225 20.8388 9.48345 20.8161 9.42858C20.7935 9.37371 20.7603 9.32386 20.7183 9.2819C20.6763 9.23993 20.6265 9.20668 20.5716 9.18406C20.5167 9.16144 20.4579 9.1499 20.3986 9.1501H18.6001C18.5408 9.1499 18.482 9.16144 18.4271 9.18406C18.3722 9.20668 18.3224 9.23993 18.2804 9.2819C18.2384 9.32386 18.2052 9.37371 18.1826 9.42858C18.1599 9.48345 18.1484 9.54225 18.1486 9.6016V11.4001C18.1501 11.6476 18.3526 11.8501 18.6001 11.8501ZM15.0001 0.600098C11.181 0.600098 7.51828 2.11724 4.81776 4.81776C2.11724 7.51828 0.600098 11.181 0.600098 15.0001C0.600098 18.8192 2.11724 22.4819 4.81776 25.1824C7.51828 27.883 11.181 29.4001 15.0001 29.4001C16.8911 29.4001 18.7637 29.0276 20.5107 28.304C22.2578 27.5803 23.8453 26.5196 25.1824 25.1824C26.5196 23.8453 27.5803 22.2578 28.304 20.5107C29.0276 18.7637 29.4001 16.8911 29.4001 15.0001C29.4001 13.1091 29.0276 11.2365 28.304 9.48946C27.5803 7.74237 26.5196 6.15492 25.1824 4.81776C23.8453 3.4806 22.2578 2.4199 20.5107 1.69623C18.7637 0.972565 16.8911 0.600098 15.0001 0.600098ZM22.5001 20.8336C22.5001 21.7501 21.7501 22.5001 20.8336 22.5001H9.1666C8.2501 22.5001 7.5001 21.7501 7.5001 20.8336V9.1666C7.5001 8.2501 8.2501 7.5001 9.1666 7.5001H20.8336C21.7501 7.5001 22.5001 8.2501 22.5001 9.1666V20.8336Z" fill="white"/>
</g>
<defs>
<clipPath id="clip0_287_584">
<rect width="30" height="30" fill="white"/>
</clipPath>
</defs>
</svg>
